<?xml version="1.0" encoding="iso-8859-1"?>
<!-- Generator: Adobe Illustrator 16.0.0, SVG Export Plug-In . SVG Version: 6.00 Build 0)  -->
<!DOCTYPE svg PUBLIC "-//W3C//DTD SVG 1.1//EN" "http://www.w3.org/Graphics/SVG/1.1/DTD/svg11.dtd">
<svg version="1.1" id="Layer_1" xmlns="http://www.w3.org/2000/svg" xmlns:xlink="http://www.w3.org/1999/xlink" x="0px" y="0px"
	 width="32.001px" height="28px" viewBox="0 0 32.001 28" style="enable-background:new 0 0 32.001 28;" xml:space="preserve">
<g id="Arrow_1_">
	<g>
		<path style="fill-rule:evenodd;clip-rule:evenodd;fill:#48A0DC;" d="M21.001,6L6.814,6.014l2.6-2.6C9.776,3.052,10,2.552,10,2
			c0-1.105-0.895-2-2-2C7.448,0,6.948,0.224,6.586,0.585l-6,6C0.314,6.857,0.121,7.207,0.041,7.598C0.015,7.728,0,7.862,0,8
			s0.015,0.272,0.042,0.402c0.079,0.391,0.272,0.74,0.544,1.012l6,6C6.948,15.775,7.448,16,8,16c1.105,0,2-0.896,2-2
			c0-0.553-0.224-1.053-0.586-1.415L6.816,9.987L21.001,10c3.866,0,7,3.134,7,7c0,3.865-3.134,7-7,7L1.999,24.018
			C0.896,24.018,0,24.905,0,26s0.896,1.982,1.999,1.982L21.001,28c6.075,0,11-4.926,11-11C32.001,10.925,27.076,6,21.001,6z"/>
	</g>
</g>
<g>
</g>
<g>
</g>
<g>
</g>
<g>
</g>
<g>
</g>
<g>
</g>
<g>
</g>
<g>
</g>
<g>
</g>
<g>
</g>
<g>
</g>
<g>
</g>
<g>
</g>
<g>
</g>
<g>
</g>
</svg>
